<svg width="512" height="512" viewBox="0 0 512 512" fill="none" xmlns="http://www.w3.org/2000/svg">
  <defs>
    <linearGradient id="bgGradient" x1="0" y1="0" x2="512" y2="512" gradientUnits="userSpaceOnUse">
      <stop offset="0%" stop-color="#6366F1"/>
      <stop offset="100%" stop-color="#8B5CF6"/>
    </linearGradient>
    <linearGradient id="bellGradient" x1="256" y1="180" x2="256" y2="380" gradientUnits="userSpaceOnUse">
      <stop offset="0%" stop-color="#FFFFFF"/>
      <stop offset="100%" stop-color="#E0E7FF"/>
    </linearGradient>
  </defs>

  <!-- Background Circle -->
  <circle cx="256" cy="256" r="240" fill="url(#bgGradient)"/>

  <!-- Bell Shape -->
  <path d="M256 160C256 160 200 160 200 200V260C200 280 185 300 165 305L155 310C145 315 140 325 140 335C140 345 148 355 158 355H354C364 355 372 345 372 335C372 325 367 315 357 310L347 305C327 300 312 280 312 260V200C312 160 256 160 256 160Z" fill="url(#bellGradient)"/>

  <!-- Bell Clapper -->
  <ellipse cx="256" cy="380" rx="35" ry="20" fill="url(#bellGradient)"/>

  <!-- Notification Badge -->
  <circle cx="340" cy="200" r="45" fill="#F59E0B"/>
  <text x="340" y="212" text-anchor="middle" fill="white" font-family="Arial, sans-serif" font-size="40" font-weight="bold">!</text>

  <!-- Bell Shine Effect -->
  <path d="M230 200C230 180 245 170 260 170" stroke="white" stroke-width="8" stroke-linecap="round" opacity="0.5"/>
</svg>