<svg width="512" height="512" viewBox="0 0 512 512" fill="none" xmlns="http://www.w3.org/2000/svg">
  <defs>
    <linearGradient id="bgGrad" x1="0" y1="0" x2="512" y2="512" gradientUnits="userSpaceOnUse">
      <stop offset="0%" stop-color="#6366F1"/>
      <stop offset="100%" stop-color="#4F46E5"/>
    </linearGradient>
  </defs>
  
  <!-- Background circle -->
  <circle cx="256" cy="256" r="240" fill="url(#bgGrad)"/>
  
  <!-- Bell icon -->
  <path d="M256 170C256 170 210 170 210 215V265C210 280 200 295 185 300L175 305C165 310 160 320 160 330C160 342 170 352 182 352H330C342 352 352 342 352 330C352 320 347 310 337 305L327 300C312 295 302 280 302 265V215C302 170 256 170 256 170Z" fill="white"/>
  
  <!-- Bell center dot -->
  <circle cx="256" cy="260" r="12" fill="#6366F1"/>
  
  <!-- Bell clapper -->
  <ellipse cx="256" cy="370" rx="28" ry="15" fill="white"/>
</svg>